<?xml version="1.0" encoding="UTF-8"?>
<svg id="Layer_2" data-name="Layer 2" xmlns="http://www.w3.org/2000/svg" viewBox="0 0 425.58 128.35">
  <defs>
    <style>
      .cls-1 {
        fill: #fff;
      }

      .cls-2 {
        opacity: .65;
      }

      .cls-2, .cls-3, .cls-4, .cls-5, .cls-6, .cls-7, .cls-8 {
        fill: #532b84;
      }

      .cls-2, .cls-3, .cls-4, .cls-5, .cls-7, .cls-8 {
        font-family: Shrikhand-Regular, Shrikhand;
        font-size: 100px;
      }

      .cls-4 {
        opacity: .6;
      }

      .cls-5 {
        opacity: .8;
      }

      .cls-6 {
        opacity: .75;
      }

      .cls-7 {
        opacity: .9;
      }

      .cls-8 {
        opacity: .55;
      }
    </style>
  </defs>
  <g id="Layer_1-2" data-name="Layer 1">
    <g>
      <text class="cls-3" transform="translate(1.6 83.45)"><tspan x="0" y="0">s</tspan></text>
      <text class="cls-7" transform="translate(61.4 83.45)"><tspan x="0" y="0">s</tspan></text>
      <text class="cls-5" transform="translate(118.44 84.25)"><tspan x="0" y="0">t</tspan></text>
      <text class="cls-2" transform="translate(231 83.45)"><tspan x="0" y="0">k</tspan></text>
      <text class="cls-4" transform="translate(298.61 85.15)"><tspan x="0" y="0">a</tspan></text>
      <text class="cls-8" transform="translate(364.18 84.35)"><tspan x="0" y="0">r</tspan></text>
      <circle class="cls-6" cx="199.07" cy="55.45" r="31.93"/>
      <path class="cls-1" d="M193.23,73.79s1.4-2.43,4.32-5.41c.32-.33,1.64-1.64,3.68-2.64,.36-.18,1.74-.84,3.69-1.19,1.1-.2,2.55-.46,4.47-.3,.68,.06,1.54,.18,2.65-.12,.75-.2,1.45-.4,1.73-1.14,.31-.81-.06-1.83-.42-2.77-.96-2.54-2.5-4.02-2.75-4.26-.53-.49-1.7-1.49-4.5-2.32-2.15-.64-4.67-1.4-7.81-.67-3.13,.73-5.26,2.52-6.42,3.7,.29-.69,.81-1.74,1.65-2.79,2.54-3.17,5.89-3.5,7.38-3.65,.94-.09,2.49-.23,4.47,.42,.55,.18,1.25,.41,2.04,.83,.59,.31,.64,.42,1.36,.88,1.04,.66,1.97,1.24,3.2,1.53,.65,.15,1.3,.29,1.98,0,.49-.21,.81-.57,1.07-.93,1.25-1.74,2.53-5.59,2.71-6.15,1.14,5.44,2.29,10.88,3.43,16.32,.74-.16,1.48-.31,2.22-.47-1.51-5.86-3.01-11.73-4.52-17.59,1.12-2.21,2.23-4.42,3.35-6.63,.07-.34,.14-.88-.08-1.4-.07-.13-.16-.27-.28-.42-.38-.46-.8-.63-1.02-.7-10.69,2.54-21.38,5.08-32.07,7.62-.36,.2-.78,.48-1.21,.88-.6,.56-1.02,1.18-1.31,1.67-3.66,7.17-7.33,14.35-10.99,21.52-.12,.16-.41,.6-.44,1.3,0,.22-.05,1.13,.48,1.69,.51,.54,1.32,.22,1.61,.11,1.45-.53,5.37-1.54,11.04-2.93,.17,.64,.43,1.53,.78,2.6,.71,2.16,1.03,2.7,1.26,3.03,.3,.43,1.09,1.59,1.95,1.56,.68-.02,1.1-.78,1.33-1.19Z"/>
    </g>
  </g>
</svg>